<svg xmlns="http://www.w3.org/2000/svg" width="32" height="32" viewBox="0 0 32 32" fill="none">
  <defs>
    <radialGradient id="globe" cx="45%" cy="40%" r="55%">
      <stop offset="0%" stop-color="#4ade80" stop-opacity="0.9"/>
      <stop offset="60%" stop-color="#16a34a" stop-opacity="0.8"/>
      <stop offset="100%" stop-color="#052e16" stop-opacity="1"/>
    </radialGradient>
    <radialGradient id="glow" cx="50%" cy="50%" r="50%">
      <stop offset="0%" stop-color="#facc15" stop-opacity="0.35"/>
      <stop offset="100%" stop-color="#facc15" stop-opacity="0"/>
    </radialGradient>
    <filter id="soft">
      <feGaussianBlur stdDeviation="0.4" result="blur"/>
      <feMerge><feMergeNode in="blur"/><feMergeNode in="SourceGraphic"/></feMerge>
    </filter>
  </defs>

  <!-- 배경 글로우 -->
  <circle cx="16" cy="16" r="14" fill="url(#glow)"/>

  <!-- 지구 본체 -->
  <circle cx="16" cy="16" r="10" fill="url(#globe)" filter="url(#soft)"/>

  <!-- 지구 위도선 (수평) -->
  <ellipse cx="16" cy="16" rx="10" ry="3.5" fill="none" stroke="#4ade80" stroke-width="0.5" stroke-opacity="0.35"/>
  <ellipse cx="16" cy="16" rx="10" ry="7" fill="none" stroke="#4ade80" stroke-width="0.4" stroke-opacity="0.2"/>

  <!-- 지구 경도선 (수직 타원) -->
  <ellipse cx="16" cy="16" rx="4" ry="10" fill="none" stroke="#4ade80" stroke-width="0.4" stroke-opacity="0.25"/>

  <!-- 지구 테두리 -->
  <circle cx="16" cy="16" r="10" fill="none" stroke="#4ade80" stroke-width="0.6" stroke-opacity="0.6"/>

  <!-- 궤도 링 (기울어진 타원) -->
  <ellipse cx="16" cy="16" rx="15" ry="5.5" fill="none"
    stroke="#facc15" stroke-width="0.8" stroke-opacity="0.7"
    stroke-dasharray="3.2 1.6"
    transform="rotate(-28 16 16)"/>

  <!-- 위성 본체 -->
  <g transform="translate(27.2, 7.5) rotate(20)">
    <!-- 몸체 -->
    <rect x="-2" y="-1.3" width="4" height="2.6" rx="0.5" fill="#facc15"/>
    <!-- 태양광 패널 왼쪽 -->
    <rect x="-5.2" y="-2.6" width="2.8" height="5.2" rx="0.3" fill="#facc15" fill-opacity="0.6" stroke="#facc15" stroke-width="0.3"/>
    <!-- 태양광 패널 오른쪽 -->
    <rect x="2.4" y="-2.6" width="2.8" height="5.2" rx="0.3" fill="#facc15" fill-opacity="0.6" stroke="#facc15" stroke-width="0.3"/>
    <!-- 안테나 -->
    <line x1="0" y1="-1.3" x2="0" y2="-3.4" stroke="#facc15" stroke-width="0.5"/>
    <circle cx="0" cy="-3.7" r="0.5" fill="#facc15"/>
  </g>

  <!-- 위성 글로우 -->
  <circle cx="27.2" cy="7.5" r="3.5" fill="#facc15" fill-opacity="0.12"/>
</svg>
